<svg xmlns="http://www.w3.org/2000/svg" width="70.584" height="79.909"><defs/><defs><path id="a" d="M.05 76.732h127.808V151.1H.05z"/></defs><g transform="translate(-14.708 -24.7)"><path d="M83 36.9v-7.2c0-2.8-2.2-5-5-5H20c-2.8 0-5 2.2-5 5v38.6c0 2 1.2 3.8 3 4.6v2.4h14v-2h2.2v2h14.2v-2h3.1v2.1h8.1v-2.1h18.3c2.8 0 5-2.2 5-5H85V54.1h-2V49h2V36.9zM36.2 73.3v-8.1h10.2v8.1zm21.4.1h-4.1v-8.2h4.1v6.1zM83 66.3H69.8V56.1H83zm-2-12.2H67.8v14.2h13.1c0 1.6-1.3 3-3 3H59.6v-8.1h-8.1v8.1h-3.1v-8.1H34.2v8.1H30v2h-2v-2h-2v2h-2v-2h-2v2h-2v-2c-1.6 0-3-1.3-3-3V29.7c0-1.6 1.3-3 3-3h58c1.6 0 3 1.3 3 3v7.2H69.8V49H81zm2-7.1H71.8v-8.1H83z"/><circle cx="31.3" cy="56.8" r="1"/><path d="M20 39.5h4v3h-4zM24 52.5v-2h-2v-2h2v-2h-4v14.3h4v-2.1h-2v-2.1h2v-2h-2v-2.1z"/><circle cx="22.1" cy="66.3" r="2"/><path d="M22.1 29.8c-1.1 0-2 .9-2 2s.9 2 2 2 2-1 2-2c0-1.1-.9-2-2-2zM47.9 28.7h2v2h-2zM47.9 32.7h2v2h-2zM43.9 28.7h2v2h-2zM27.9 28.7h2v2h-2zM27.9 32.7h2v2h-2zM29.2 45.7v2h-2v1.9h4V39.5h-4v2.1h2v2h-2v2.1zM27.2 60.8h8.1v-8.1h-8.1v8.1zm2-6.1h4.1v4.1h-4.1v-4.1zM31.9 32.7h2v2h-2zM31.9 28.7h2v2h-2zM35.9 32.7h2v2h-2zM35.9 28.7h2v2h-2zM39.9 32.7h2v2h-2zM39.9 28.7h2v2h-2zM43.9 32.7h2v2h-2zM42.4 69.3h2v2h-2zM46.5 39.5h-.8l-.6.6-2 2-.6.6V52.6h13.1V39.5h-2-7.1zm7.1 11.1h-9.1v-7.1l2-2h7.1zM51.9 32.7h2v2h-2zM51.9 28.7h2v2h-2zM55.9 32.7h2v2h-2zM55.9 28.7h2v2h-2z"/><circle cx="63.7" cy="66.3" r="2"/><path d="M63.7 29.8c-1.1 0-2 .9-2 2s.9 2 2 2 2-1 2-2c0-1.1-.9-2-2-2zM76.5 41.9V44l1.8.8v-1l-.8-.7v-.3l.8-.7v-1zM75.5 60.2v2.1l1.8.8v-1l-.8-.7V61l.8-.6v-1z"/></g><text style="line-height:1.25;white-space:pre;shape-inside:url(#a)" transform="translate(-1.107 -18.788)" font-weight="400" font-size="24" font-family="sans-serif"><tspan x=".051" y="98.506"><tspan style="-inkscape-font-specification:'Iosevka Term Slab'" font-family="Iosevka Term Slab">omaBOX</tspan></tspan></text></svg>